<svg xmlns="http://www.w3.org/2000/svg" xmlns:xlink="http://www.w3.org/1999/xlink" viewBox="0 0 1398.82 1572.92"><defs><style>.cls-1,.cls-8{fill:none;}.cls-2{fill:#fff;}.cls-3{clip-path:url(#clip-path);}.cls-4{fill:#0066b3;fill-rule:evenodd;}.cls-5{fill:#414042;}.cls-6{fill:#00ab4c;}.cls-7{fill:#231f20;}.cls-8{stroke:#231f20;stroke-miterlimit:10;stroke-width:10.92px;}</style><clipPath id="clip-path"><path class="cls-1" d="M50.42,627c0,327.76,267.33,593.45,597.14,593.45S1244.68,954.71,1244.68,627,977.34,33.47,647.56,33.47,50.42,299.18,50.42,627"/></clipPath></defs><title>Logo BMKG</title><g id="Layer_2" data-name="Layer 2"><g id="Layer_1-2" data-name="Layer 1"><path class="cls-2" d="M50.42,627c0-327.77,267.34-593.48,597.12-593.48S1244.66,299.18,1244.66,627s-267.33,593.47-597.12,593.47S50.42,954.71,50.42,627"/><g class="cls-3"><polygon class="cls-4" points="51.49 0 1284.56 0 1284.56 535.42 73.24 535.42 78.76 535.42 51.49 486.55 51.49 0"/><rect class="cls-2" x="51.49" y="135.42" width="1075.73" height="74.77"/><rect class="cls-2" x="67.59" y="289.88" width="1120.93" height="62.3"/><rect class="cls-2" x="67.59" y="414.45" width="1177.08" height="33.3"/><rect class="cls-2" x="50.2" y="496.48" width="1194.47" height="17.87"/><path class="cls-2" d="M58,492.78c0-63.33,60.44-114.64,135-114.64s135,51.31,135,114.64S267.56,607.46,193,607.46,58,556.11,58,492.78"/><path class="cls-2" d="M287.29,480.3C287.29,358.6,394.11,260,525.91,260S764.55,358.6,764.55,480.3,657.71,700.64,525.91,700.64,287.29,602,287.29,480.3"/><path class="cls-2" d="M708.69,500c0-63.33,60.43-114.66,135-114.66s135,51.33,135,114.66-60.43,114.65-135,114.65-135-51.32-135-114.65"/><path class="cls-2" d="M945.29,583.37c0-63.93,45.51-115.76,101.66-115.76s101.67,51.83,101.67,115.76S1103.1,699.12,1047,699.12,945.29,647.29,945.29,583.37"/><polyline class="cls-5" points="0 619.68 1398.82 619.68 1398.82 636.96 0 636.96"/><path class="cls-6" d="M51.48,719.69h293l19.63,19H51.48Zm0,40.36H386.2l41.67,40.4H51.48Zm0,86.37H475.31l57.22,55.41h-481Zm90.36,117.76h455l74.34,72H141.84Zm8.47,160H762l90.8,88v20.62H150.31Z"/><path class="cls-6" d="M761.87,1124l-89.1-86.34,544.36-1.48V1124ZM612.67,979.49,554.41,923h659.17v56.47ZM511.06,881l-35.74-34.62h756.62V881Zm-64.47-62.46-18.71-18.13h874.93v18.13Z"/></g><path class="cls-7" d="M82.18,1291.08H193.52q33,0,49.28,2.68A73.46,73.46,0,0,1,271.88,1305a70.62,70.62,0,0,1,21.38,22.7,60.39,60.39,0,0,1,8.53,31.81,62,62,0,0,1-10.54,35,64.72,64.72,0,0,1-28.57,23.91q25.43,7.23,39.11,24.66t13.69,41a79.39,79.39,0,0,1-8.83,36,73,73,0,0,1-24.12,28q-15.3,10.49-37.72,12.89-14,1.48-67.81,1.86H82.18Zm56.24,45.21v62.85h36.84q32.9,0,40.86-.93,14.44-1.67,22.72-9.73t8.24-21.21q0-12.6-7.12-20.49t-21.17-9.54q-8.37-.95-48.08-1Zm0,108.08V1517h52.06q30.39,0,38.57-1.66a35.26,35.26,0,0,0,20.41-10.84c5.24-5.76,7.89-13.44,7.89-23.07,0-8.18-2-15.09-6.07-20.78s-9.92-9.83-17.59-12.41-24.28-3.9-49.86-3.9Z"/><path class="cls-8" d="M82.18,1291.08H193.52q33,0,49.28,2.68A73.46,73.46,0,0,1,271.88,1305a70.62,70.62,0,0,1,21.38,22.7,60.39,60.39,0,0,1,8.53,31.81,62,62,0,0,1-10.54,35,64.72,64.72,0,0,1-28.57,23.91q25.43,7.23,39.11,24.66t13.69,41a79.39,79.39,0,0,1-8.83,36,73,73,0,0,1-24.12,28q-15.3,10.49-37.72,12.89-14,1.48-67.81,1.86H82.18Zm56.24,45.21v62.85h36.84q32.9,0,40.86-.93,14.44-1.67,22.72-9.73t8.24-21.21q0-12.6-7.12-20.49t-21.17-9.54q-8.37-.95-48.08-1Zm0,108.08V1517h52.06q30.39,0,38.57-1.66a35.26,35.26,0,0,0,20.41-10.84c5.24-5.76,7.89-13.44,7.89-23.07,0-8.18-2-15.09-6.07-20.78s-9.92-9.83-17.59-12.41-24.28-3.9-49.86-3.9Z"/><polygon class="cls-7" points="362.2 1562.83 362.2 1291.08 446.37 1291.08 496.91 1476.43 546.88 1291.08 631.22 1291.08 631.22 1562.83 578.98 1562.83 578.98 1348.92 523.69 1562.83 469.55 1562.83 414.45 1348.92 414.45 1562.83 362.2 1562.83"/><polygon class="cls-8" points="362.2 1562.83 362.2 1291.08 446.37 1291.08 496.91 1476.43 546.88 1291.08 631.22 1291.08 631.22 1562.83 578.98 1562.83 578.98 1348.92 523.69 1562.83 469.55 1562.83 414.45 1348.92 414.45 1562.83 362.2 1562.83"/><polygon class="cls-7" points="687.84 1562.83 687.84 1291.08 744.06 1291.08 744.06 1411.75 857.67 1291.08 933.28 1291.08 828.42 1396.91 938.98 1562.83 866.22 1562.83 789.65 1435.28 744.06 1480.7 744.06 1562.83 687.84 1562.83"/><polygon class="cls-8" points="687.84 1562.83 687.84 1291.08 744.06 1291.08 744.06 1411.75 857.67 1291.08 933.28 1291.08 828.42 1396.91 938.98 1562.83 866.22 1562.83 789.65 1435.28 744.06 1480.7 744.06 1562.83 687.84 1562.83"/><path class="cls-7" d="M1097.6,1462.92v-45.8h121.21v108.27q-17.64,16.68-51.18,29.37a190.46,190.46,0,0,1-67.93,12.69q-43.71,0-76.18-17.88a115,115,0,0,1-48.84-51.15q-16.3-33.29-16.32-72.4,0-42.45,18.22-75.45T1030,1300q26.8-13.53,66.68-13.54,51.88,0,81,21.22t37.51,58.67l-55.84,10.19q-5.91-20-22.15-31.61t-40.56-11.56q-36.83,0-58.59,22.78t-21.76,67.66q0,48.38,22,72.57t57.75,24.19a98.68,98.68,0,0,0,35.43-6.76,121,121,0,0,0,30.5-16.41v-34.46Z"/><path class="cls-8" d="M1097.6,1462.92v-45.8h121.21v108.27q-17.64,16.68-51.18,29.37a190.46,190.46,0,0,1-67.93,12.69q-43.71,0-76.18-17.88a115,115,0,0,1-48.84-51.15q-16.3-33.29-16.32-72.4,0-42.45,18.22-75.45T1030,1300q26.8-13.53,66.68-13.54,51.88,0,81,21.22t37.51,58.67l-55.84,10.19q-5.91-20-22.15-31.61t-40.56-11.56q-36.83,0-58.59,22.78t-21.76,67.66q0,48.38,22,72.57t57.75,24.19a98.68,98.68,0,0,0,35.43-6.76,121,121,0,0,0,30.5-16.41v-34.46Z"/></g></g></svg>